<svg width="24" height="24" viewBox="0 0 24 24" fill="none" xmlns="http://www.w3.org/2000/svg">
<mask id="mask0_744_5933" style="mask-type:alpha" maskUnits="userSpaceOnUse" x="0" y="0" width="24" height="24">
<path d="M0 0H24V24H0V0Z" fill="#D9D9D9"/>
</mask>
<g mask="url(#mask0_744_5933)">
<path d="M4.25 18.3C3.61667 17.55 3.10833 16.725 2.725 15.825C2.34167 14.925 2.1 13.9833 2 13H4.05C4.15 13.7167 4.33333 14.4042 4.6 15.0625C4.86667 15.7208 5.21667 16.3333 5.65 16.9L4.25 18.3ZM2 11C2.13333 10.0167 2.38333 9.07499 2.75 8.17499C3.11667 7.27499 3.61667 6.44999 4.25 5.69999L5.65 7.09999C5.21667 7.66665 4.86667 8.27915 4.6 8.93749C4.33333 9.59582 4.15 10.2833 4.05 11H2ZM10.95 21.95C9.96667 21.85 9.02917 21.6125 8.1375 21.2375C7.24583 20.8625 6.41667 20.3667 5.65 19.75L7.05 18.3C7.63333 18.7333 8.25 19.0917 8.9 19.375C9.55 19.6583 10.2333 19.85 10.95 19.95V21.95ZM7.1 5.69999L5.65 4.24999C6.43333 3.63332 7.275 3.13749 8.175 2.76249C9.075 2.38749 10.0167 2.14999 11 2.04999V4.04999C10.2833 4.14999 9.59583 4.34165 8.9375 4.62499C8.27917 4.90832 7.66667 5.26665 7.1 5.69999ZM12.95 21.95V19.95C13.6833 19.85 14.3792 19.6625 15.0375 19.3875C15.6958 19.1125 16.3167 18.75 16.9 18.3L18.35 19.75C17.5667 20.3833 16.7208 20.8833 15.8125 21.25C14.9042 21.6167 13.95 21.85 12.95 21.95ZM16.95 5.69999C16.3667 5.26665 15.7417 4.90832 15.075 4.62499C14.4083 4.34165 13.7167 4.14999 13 4.04999V2.04999C13.9833 2.14999 14.9292 2.38749 15.8375 2.76249C16.7458 3.13749 17.5833 3.63332 18.35 4.24999L16.95 5.69999ZM19.75 18.3L18.35 16.9C18.7833 16.3333 19.1333 15.7208 19.4 15.0625C19.6667 14.4042 19.85 13.7167 19.95 13H22C21.8667 13.9833 21.6167 14.925 21.25 15.825C20.8833 16.725 20.3833 17.55 19.75 18.3ZM19.95 11C19.85 10.2833 19.6667 9.59582 19.4 8.93749C19.1333 8.27915 18.7833 7.66665 18.35 7.09999L19.75 5.69999C20.3833 6.44999 20.8917 7.27499 21.275 8.17499C21.6583 9.07499 21.9 10.0167 22 11H19.95Z" fill="#1C1B1F"/>
</g>
</svg>
