<svg width="717" height="125" viewBox="0 0 717 125" fill="none" xmlns="http://www.w3.org/2000/svg">
<path d="M311.919 105.988C307.666 105.988 303.847 105.487 300.463 104.485C297.13 103.554 294.425 102.051 292.346 99.9746C290.267 97.8986 288.892 95.214 288.222 91.9211C287.57 88.5567 287.815 84.5125 288.954 79.7882L291.209 70.4471C292.348 65.723 294.048 61.7148 296.306 58.4223C298.583 55.0583 301.262 52.3385 304.342 50.2628C307.423 48.1874 310.854 46.6843 314.635 45.7538C318.502 44.7519 322.563 44.2509 326.816 44.2509C331.07 44.2509 334.89 44.7519 338.272 45.7538C341.674 46.6843 344.414 48.1874 346.493 50.2628C348.573 52.3385 349.938 55.0583 350.592 58.4223C351.261 61.7148 351.027 65.723 349.888 70.4471L347.633 79.7882C346.493 84.5125 344.786 88.5567 342.511 91.9211C340.251 95.214 337.581 97.8986 334.501 99.9746C331.419 102.051 327.954 103.554 324.102 104.485C320.235 105.487 316.174 105.988 311.919 105.988ZM316.116 88.5926C317.79 88.5926 319.255 88.3064 320.508 87.7337C321.832 87.161 322.946 86.4451 323.85 85.5861C324.773 84.6555 325.51 83.6177 326.067 82.4723C326.691 81.3272 327.141 80.1818 327.418 79.0364L329.31 71.1987C329.586 70.0533 329.68 68.944 329.59 67.8703C329.586 66.725 329.349 65.6872 328.876 64.7567C328.404 63.8263 327.644 63.0747 326.596 62.502C325.619 61.9295 324.292 61.6431 322.621 61.6431C320.947 61.6431 319.447 61.9295 318.124 62.502C316.871 63.0747 315.782 63.8263 314.861 64.7567C313.938 65.6872 313.2 66.725 312.646 67.8703C312.108 68.944 311.7 70.0533 311.424 71.1987L309.532 79.0364C309.255 80.1818 309.119 81.3272 309.121 82.4723C309.124 83.6177 309.362 84.6555 309.834 85.5861C310.324 86.4451 311.058 87.161 312.037 87.7337C313.083 88.3064 314.443 88.5926 316.116 88.5926ZM399.333 48.0083C399.679 46.5769 400.583 45.8612 402.047 45.8612H418.678C420.072 45.8612 420.596 46.5769 420.253 48.0083L407.722 99.9746C406.807 103.769 405.526 107.205 403.876 110.283C402.229 113.361 400.133 115.974 397.592 118.122C395.052 120.27 392.005 121.916 388.452 123.062C384.897 124.207 380.784 124.78 376.112 124.78H358.329C356.865 124.78 356.304 124.064 356.65 122.632L360.07 108.457C360.259 107.67 360.606 107.097 361.11 106.739C361.617 106.381 362.183 106.203 362.81 106.203H379.546C381.29 106.203 382.788 105.773 384.042 104.914C385.277 104.127 386.119 102.802 386.569 100.941L395.295 64.7567C394.508 63.9693 393.591 63.4325 392.545 63.1462C391.585 62.7883 390.653 62.6094 389.747 62.6094C382.983 62.6094 378.806 65.9019 377.218 72.4871C376.389 75.9228 376.691 78.4281 378.124 80.0029C379.645 81.506 382.079 82.2576 385.426 82.2576H385.844C387.238 82.2576 387.763 82.9735 387.417 84.4051L384.285 97.3974C383.939 98.8292 383.071 99.5449 381.675 99.5449H381.257C376.514 99.5449 372.356 99.0081 368.779 97.9342C365.203 96.8606 362.313 95.2499 360.111 93.1024C357.98 90.9548 356.562 88.3064 355.858 85.1567C355.17 81.9355 355.344 78.1775 356.381 73.8828L356.898 71.7355C357.899 67.5839 359.452 63.8978 361.553 60.6768C363.671 57.3845 366.15 54.6288 368.986 52.4102C371.84 50.1198 374.982 48.3663 378.414 47.1496C381.845 45.9329 385.407 45.3246 389.104 45.3246C390.916 45.3246 392.73 45.6108 394.544 46.1833C396.376 46.6843 397.921 47.5074 399.178 48.6525L399.333 48.0083ZM441.197 79.5734L440.808 81.1839C440.152 83.9039 440.393 86.0873 441.531 87.7337C442.669 89.38 444.91 90.2033 448.258 90.2033C450.697 90.2033 452.692 89.8812 454.243 89.2368C455.793 88.5926 456.871 87.4472 457.476 85.8009C457.79 85.0852 458.128 84.5481 458.492 84.1904C458.858 83.8324 459.424 83.6536 460.19 83.6536H475.568C476.961 83.6536 477.486 84.3693 477.142 85.8009L476.78 87.3042C476.107 90.0959 474.796 92.637 472.85 94.9278C470.972 97.2185 468.581 99.187 465.675 100.833C462.835 102.48 459.57 103.733 455.877 104.592C452.165 105.523 448.183 105.988 443.929 105.988C439.885 105.988 436.205 105.487 432.89 104.485C429.557 103.554 426.817 102.051 424.667 99.9746C422.519 97.8986 421.073 95.214 420.333 91.9211C419.61 88.5567 419.818 84.5125 420.957 79.7882L423.21 70.4471C424.347 65.723 426.047 61.7148 428.306 58.4223C430.65 55.0583 433.398 52.3385 436.547 50.2628C439.768 48.1874 443.302 46.6843 447.152 45.7538C451.02 44.7519 455.115 44.2509 459.437 44.2509C463.691 44.2509 467.44 44.7519 470.686 45.7538C474 46.756 476.679 48.2231 478.724 50.1555C480.856 52.0164 482.29 54.3067 483.03 57.0265C483.77 59.7463 483.734 62.7883 482.924 66.1525L480.232 77.3186C479.87 78.8217 478.956 79.5734 477.492 79.5734H441.197ZM455.659 59.496C452.87 59.496 450.38 60.2832 448.187 61.8578C446.063 63.4325 444.639 65.5798 443.915 68.2998H462.742C463.327 65.5798 463.007 63.4325 461.784 61.8578C460.56 60.2832 458.518 59.496 455.659 59.496ZM500.886 45.8612L503.888 33.4082C504.215 32.0483 505.112 31.3685 506.576 31.3685H523.205C524.6 31.3685 525.133 32.0483 524.806 33.4082L521.806 45.8612H533.206C534.671 45.8612 535.229 46.5769 534.885 48.0083L531.445 62.2873C531.082 63.7904 530.169 64.542 528.706 64.542H517.304L513.166 81.7208C512.666 83.7966 512.712 85.1925 513.306 85.9082C513.902 86.6241 515.001 86.9821 516.605 86.9821H523.509C524.066 86.9821 524.511 87.161 524.843 87.5189C525.176 87.8769 525.247 88.4494 525.058 89.2368L521.539 103.84C521.195 105.272 520.324 105.988 518.931 105.988H512.027C507.284 105.988 503.386 105.523 500.333 104.592C497.35 103.661 495.088 102.194 493.549 100.189C492.026 98.1133 491.208 95.4288 491.096 92.1361C490.982 88.8432 491.496 84.8346 492.633 80.1103L496.386 64.542H490.737C489.273 64.542 488.722 63.7904 489.084 62.2873L492.525 48.0083C492.871 46.5769 493.775 45.8612 495.239 45.8612H500.886ZM548.836 102.122C548.475 103.625 547.595 104.377 546.202 104.377H529.778C528.383 104.377 527.867 103.625 528.23 102.122L548.014 19.9895C548.342 18.6298 549.204 17.9499 550.597 17.9499H566.912C568.377 17.9499 568.946 18.6298 568.617 19.9895L561.508 49.5115C563.316 48.08 565.38 47.0422 567.697 46.398C570.101 45.6823 572.348 45.3246 574.44 45.3246C578.135 45.3246 581.406 45.9329 584.251 47.1496C587.094 48.3663 589.375 50.1913 591.089 52.6249C592.823 54.9868 593.919 57.957 594.383 61.5357C594.846 65.1147 594.517 69.2302 593.398 73.8828L586.599 102.122C586.236 103.625 585.358 104.377 583.963 104.377H567.644C566.251 104.377 565.733 103.625 566.096 102.122L572.716 74.6344C573.698 70.5545 573.577 67.5839 572.352 65.723C571.195 63.8619 568.944 62.9315 565.597 62.9315C564.482 62.9315 563.167 63.1821 561.65 63.683C560.223 64.1125 558.865 64.8282 557.578 65.8304L548.836 102.122ZM620.583 79.5734L620.194 81.1839C619.541 83.9039 619.782 86.0873 620.919 87.7337C622.057 89.38 624.3 90.2033 627.648 90.2033C630.087 90.2033 632.082 89.8812 633.633 89.2368C635.183 88.5926 636.259 87.4472 636.866 85.8009C637.176 85.0852 637.516 84.5481 637.88 84.1904C638.245 83.8324 638.813 83.6536 639.578 83.6536H654.954C656.349 83.6536 656.874 84.3693 656.53 85.8009L656.168 87.3042C655.496 90.0959 654.188 92.637 652.242 94.9278C650.366 97.2185 647.973 99.187 645.067 100.833C642.231 102.48 638.966 103.733 635.271 104.592C631.561 105.523 627.579 105.988 623.325 105.988C619.279 105.988 615.599 105.487 612.285 104.485C608.953 103.554 606.211 102.051 604.061 99.9746C601.911 97.8986 600.465 95.214 599.723 91.9211C598.998 88.5567 599.206 84.5125 600.343 79.7882L602.592 70.4471C603.73 65.723 605.426 61.7148 607.685 58.4223C610.027 55.0583 612.775 52.3385 615.924 50.2628C619.143 48.1874 622.677 46.6843 626.527 45.7538C630.394 44.7519 634.49 44.2509 638.813 44.2509C643.066 44.2509 646.815 44.7519 650.06 45.7538C653.375 46.756 656.056 48.2231 658.1 50.1555C660.233 52.0164 661.669 54.3067 662.409 57.0265C663.149 59.7463 663.113 62.7883 662.304 66.1525L659.616 77.3186C659.256 78.8217 658.342 79.5734 656.878 79.5734H620.583ZM635.037 59.496C632.249 59.496 629.759 60.2832 627.567 61.8578C625.443 63.4325 624.02 65.5798 623.297 68.2998H642.125C642.709 65.5798 642.388 63.4325 641.164 61.8578C639.939 60.2832 637.897 59.496 635.037 59.496ZM681.89 102.122C681.53 103.625 680.652 104.377 679.256 104.377H662.519C661.126 104.377 660.608 103.625 660.971 102.122L674.018 47.901C674.345 46.5413 675.207 45.8612 676.6 45.8612H693.231C694.695 45.8612 695.263 46.5413 694.936 47.901L694.24 50.7997C697.979 48.0083 701.452 46.3265 704.657 45.7538C707.951 45.1098 711.201 44.7877 714.408 44.7877C715.873 44.7877 716.44 45.4676 716.114 46.8275L712.239 62.9315C711.877 64.4346 710.999 65.1862 709.606 65.1862C707.652 65.1862 705.823 65.2577 704.114 65.4009C702.475 65.5439 700.873 65.8304 699.305 66.2598C697.738 66.6893 696.128 67.2976 694.473 68.0851C692.906 68.8008 691.2 69.8029 689.357 71.0913L681.89 102.122ZM261.937 102.31C261.588 103.754 260.637 104.476 259.083 104.476H240.314C238.834 104.476 238.268 103.754 238.615 102.31L253.092 42.3518C253.44 40.9082 254.355 40.1863 255.836 40.1863H274.602C276.156 40.1863 276.76 40.9082 276.41 42.3518L261.937 102.31ZM237.117 36.7671C235.711 36.7671 235.191 36.0073 235.559 34.4876L239.688 17.3922C240.073 15.7967 240.967 14.9989 242.374 14.9989H300.336C301.742 14.9989 302.252 15.7967 301.867 17.3922L297.741 34.4876C297.375 36.0073 296.488 36.7671 295.081 36.7671H237.117ZM72.9477 102.122C72.5853 103.625 71.7054 104.377 70.3119 104.377H53.5748C52.1794 104.377 51.6638 103.625 52.0281 102.122L65.1376 47.901C65.4664 46.5413 66.3294 45.8612 67.7229 45.8612H84.3535C85.818 45.8612 86.3859 46.5413 86.0572 47.901L85.3548 50.7997C89.0982 48.0083 92.5727 46.3265 95.78 45.7538C99.0733 45.1098 102.324 44.7877 105.531 44.7877C106.995 44.7877 107.563 45.4676 107.235 46.8275L103.342 62.9315C102.979 64.4346 102.099 65.1862 100.704 65.1862C98.752 65.1862 96.9214 65.2577 95.214 65.4009C93.5758 65.5441 91.9731 65.8304 90.4039 66.2598C88.8367 66.6893 87.2246 67.2976 85.5696 68.0851C84.0024 68.8008 82.295 69.8029 80.4495 71.0913L72.9477 102.122ZM120.019 102.122C119.657 103.625 118.777 104.377 117.383 104.377H100.646C99.2507 104.377 98.7352 103.625 99.0994 102.122L112.205 47.901C112.534 46.5413 113.395 45.8612 114.789 45.8612H131.419C132.884 45.8612 133.452 46.5413 133.123 47.901L120.019 102.122ZM145.112 122.525C144.747 124.028 143.869 124.78 142.474 124.78H126.051C124.655 124.78 124.14 124.028 124.504 122.525L142.536 47.901C142.864 46.5413 143.726 45.8612 145.121 45.8612H161.438C162.902 45.8612 163.47 46.5413 163.141 47.901L162.751 49.5115C164.561 48.08 166.625 47.0422 168.943 46.398C171.348 45.6823 173.595 45.3246 175.687 45.3246C179.382 45.3246 182.653 45.9329 185.496 47.1496C188.341 48.3663 190.618 50.1913 192.331 52.6249C194.062 54.9868 195.157 57.957 195.618 61.5357C196.078 65.1147 195.747 69.2302 194.623 73.8828L194.105 76.0302C192.945 80.826 191.202 85.0135 188.873 88.5926C186.562 92.1002 183.76 95.0351 180.471 97.3974C177.25 99.7596 173.583 101.514 169.472 102.659C165.359 103.804 160.932 104.377 156.191 104.377H149.496L145.112 122.525ZM166.831 62.9315C165.715 62.9315 164.4 63.1821 162.884 63.683C161.455 64.1125 160.097 64.8282 158.81 65.8304L153.777 86.6598H160.47C163.818 86.6598 166.623 85.7294 168.885 83.8683C171.235 81.9355 172.92 78.8575 173.94 74.6344C174.927 70.5545 174.807 67.5839 173.583 65.723C172.429 63.8619 170.178 62.9315 166.831 62.9315ZM26.6665 102.31C26.3171 103.754 25.3645 104.476 23.8103 104.476H5.04079C3.56134 104.476 2.99533 103.754 3.34465 102.31L17.8477 42.3518C18.197 40.9082 19.1104 40.1863 20.5918 40.1863H39.3575C40.9117 40.1863 41.5151 40.9082 41.1657 42.3518L26.6665 102.31ZM1.87642 36.7671C0.469827 36.7671 -0.0494713 36.0073 0.316654 34.4876L4.45237 17.3922C4.83904 15.7967 5.73568 14.9989 7.14227 14.9989H65.1021C66.5087 14.9989 67.0187 15.7967 66.6339 17.3922L62.5 34.4876C62.132 36.0073 61.2447 36.7671 59.8381 36.7671H1.87642ZM39.4616 31.2767H166.136V36.7671H39.4616V31.2767ZM39.4616 23.2104H166.136V28.7008H39.4616V23.2104ZM39.4616 15.144H166.136V20.6344H39.4616V15.144ZM198.68 0.865657C194.193 1.29795 191.891 2.45364 191.168 4.63682C190.675 6.1226 191.215 8.65712 192.441 10.4428C194.59 13.6108 194.975 14.4788 194.623 15.5401C194.241 16.6923 193.262 17.0072 190.987 16.6578C189.966 16.4877 189.45 16.216 188.62 15.369C187.111 13.8262 182.133 10.7643 180.87 10.6151C179.616 10.4355 178.021 11.1859 175.114 13.3528C171.804 15.8234 171.824 15.8638 174.929 22.9493C175.356 23.9991 175.712 25.2611 175.713 25.7662C175.673 26.2915 174.959 28.4444 174.064 30.537C172.313 34.8028 172.283 35.1968 173.955 37.3656C174.958 38.7073 175.787 38.8472 180.162 38.4454L183.537 38.1161L186.059 35.4853C187.511 33.9472 188.914 32.7629 189.429 32.6306C190.611 32.3154 193.804 32.2288 194.593 32.4902C195.624 32.8318 195.577 34.3976 194.48 36.8946C193.161 39.8566 191.704 44.2533 191.574 45.5566C191.415 46.9508 192.498 47.9489 195.077 48.8029C199.719 50.34 203.727 47.9995 209.686 40.3825C210.936 38.7439 212.852 36.3161 213.86 35.0012C215.978 32.27 215.937 32.2903 221.041 32.1297C222.577 32.0662 224.618 31.8 225.557 31.5054C229.355 30.4076 232.289 26.5335 231.869 23.2312C231.254 18.7878 225.831 15.3428 220 15.6664C216.433 15.8648 215.837 15.6333 214.003 13.0407C213.182 11.8604 211.855 10.2768 211.096 9.5206C210.336 8.76437 209.182 7.37247 208.574 6.46441C206.942 4.07334 204.645 2.06729 202.713 1.29295C201.408 0.759907 200.59 0.69051 198.68 0.865657ZM203.291 7.67578C205.873 10.651 209.176 15.1099 210.919 17.9755L212.065 19.9028L217.916 19.9216C221.14 19.9453 224.132 20.062 224.617 20.2227C225.709 20.5844 227.016 22.1276 227.149 23.2485C227.293 24.5413 225.75 26.2512 223.811 26.9213C222.548 27.3781 215.151 27.8561 214.241 27.5547C213.756 27.3939 212.656 28.2747 211.718 29.5794C209.803 32.3102 202.352 41.9905 201.766 42.537C201.464 42.8406 200.333 43.2062 199.272 43.3597C197.402 43.6157 197.342 43.5956 197.128 42.9191C196.824 42.0105 196.864 41.8892 200.125 34.5902C201.695 31.0722 202.792 28.2722 202.69 28.0703C202.589 27.8686 199.567 27.7426 195.605 27.8104C191.785 27.8578 188.208 27.8841 187.601 27.8852C186.651 27.9063 186.339 28.1399 184.635 30.335C183.586 31.6703 182.285 32.9555 181.769 33.1887C180.699 33.6755 177.9 33.7916 177.788 33.317C177.747 33.1353 178.421 31.4067 179.277 29.4355C180.132 27.4642 180.846 25.5134 180.886 25.089C180.926 24.6647 180.478 23.2715 179.92 22.0099C178.591 19.0122 177.961 17.0536 178.152 16.4775C178.333 15.9317 180.535 15.3823 181.415 15.6737C182.143 15.9149 183.469 17.1953 185.201 19.2832C186.568 20.9474 187.256 21.2088 189.954 20.9918C191.096 20.899 193.43 20.7634 195.108 20.6796C196.825 20.5754 199.099 20.4198 200.211 20.3169L202.201 20.1011L201.947 19.1419C201.815 18.627 200.283 15.4276 198.559 12.0973C196.845 8.73662 195.485 5.82983 195.556 5.61756C195.686 5.22341 199.657 4.62032 200.516 4.8713C200.769 4.92115 201.994 6.20331 203.291 7.67578Z" fill="white"/>
</svg>
