<svg width="36" height="202" viewBox="0 0 36 202" fill="none" xmlns="http://www.w3.org/2000/svg">
<path d="M30.2407 113.598C30.2407 114.792 30.0992 115.864 29.8163 116.814C29.5537 117.749 29.1293 118.509 28.5434 119.092C27.9574 119.676 27.1997 120.062 26.2702 120.25C25.3206 120.433 24.1791 120.364 22.8456 120.045L20.209 119.412C18.8756 119.092 17.7442 118.615 16.8149 117.981C15.8654 117.341 15.0977 116.589 14.5118 115.725C13.926 114.86 13.5018 113.897 13.2391 112.835C12.9563 111.75 12.8149 110.61 12.8149 109.416C12.8149 108.222 12.9563 107.149 13.2391 106.2C13.5018 105.245 13.926 104.475 14.5118 103.892C15.0977 103.308 15.8654 102.925 16.8149 102.741C17.7442 102.553 18.8756 102.619 20.209 102.939L22.8456 103.572C24.1791 103.892 25.3206 104.371 26.2702 105.01C27.1997 105.644 27.9574 106.394 28.5434 107.258C29.1293 108.124 29.5537 109.096 29.8163 110.178C30.0992 111.263 30.2407 112.403 30.2407 113.598ZM25.3307 112.419C25.3307 111.95 25.2499 111.538 25.0883 111.187C24.9266 110.815 24.7246 110.502 24.4821 110.248C24.2194 109.989 23.9265 109.782 23.6032 109.626C23.28 109.451 22.9567 109.324 22.6334 109.247L20.4211 108.716C20.0979 108.638 19.7847 108.612 19.4817 108.637C19.1584 108.638 18.8655 108.705 18.6028 108.837C18.3402 108.97 18.1281 109.183 17.9664 109.478C17.8049 109.752 17.724 110.124 17.724 110.593C17.724 111.063 17.8049 111.484 17.9664 111.856C18.1281 112.208 18.3402 112.513 18.6028 112.772C18.8655 113.031 19.1584 113.238 19.4817 113.394C19.7847 113.545 20.0979 113.659 20.4211 113.737L22.6334 114.268C22.9567 114.345 23.28 114.384 23.6032 114.383C23.9265 114.382 24.2194 114.316 24.4821 114.183C24.7246 114.046 24.9266 113.839 25.0883 113.565C25.2499 113.271 25.3307 112.889 25.3307 112.419ZM13.8755 89.0582C13.4715 88.9612 13.2694 88.7074 13.2694 88.2963V83.6276C13.2694 83.2364 13.4715 83.089 13.8755 83.1855L28.5434 86.7032C29.6143 86.9601 30.5841 87.3198 31.453 87.7829C32.3219 88.2454 33.0595 88.8338 33.6657 89.5469C34.2719 90.2601 34.7366 91.1154 35.06 92.1128C35.3833 93.1107 35.5449 94.2654 35.5449 95.5769V100.569C35.5449 100.98 35.3428 101.138 34.9387 101.041L30.9377 100.08C30.7155 100.027 30.5538 99.9299 30.4528 99.7883C30.3518 99.6462 30.3013 99.4873 30.3013 99.3111V94.6131C30.3013 94.1233 30.18 93.7028 29.9376 93.3509C29.7153 93.0043 29.3415 92.7678 28.8161 92.6414L18.6028 90.1919C18.3806 90.4127 18.2291 90.6702 18.1483 90.9638C18.0472 91.2334 17.9967 91.4951 17.9967 91.7494C17.9967 93.6482 18.9261 94.8207 20.7848 95.2665C21.7546 95.4993 22.4617 95.4144 22.9062 95.0122C23.3305 94.5853 23.5426 93.902 23.5426 92.9623V92.8448C23.5426 92.4537 23.7447 92.3063 24.1488 92.4033L27.8159 93.2827C28.2201 93.3797 28.4221 93.6236 28.4221 94.0153V94.1328C28.4221 95.4642 28.2706 96.6315 27.9675 97.6357C27.6644 98.6394 27.2098 99.4506 26.6036 100.069C25.9975 100.667 25.2499 101.065 24.3609 101.263C23.4517 101.456 22.391 101.407 21.1788 101.116L20.5727 100.971C19.4008 100.69 18.3604 100.254 17.4513 99.664C16.522 99.0694 15.7442 98.3735 15.1179 97.5775C14.4715 96.7762 13.9765 95.8942 13.6331 94.9309C13.2897 93.9676 13.118 92.9676 13.118 91.9298C13.118 91.4211 13.1988 90.9119 13.3603 90.4027C13.5018 89.8883 13.7341 89.4547 14.0573 89.1017L13.8755 89.0582ZM22.785 77.306L23.2396 77.4151C24.0073 77.5992 24.6236 77.5315 25.0883 77.2122C25.553 76.8928 25.7854 76.2635 25.7854 75.3238C25.7854 74.639 25.6944 74.0789 25.5126 73.6437C25.3307 73.2085 25.0074 72.9059 24.5427 72.736C24.3407 72.6479 24.1891 72.553 24.0882 72.4507C23.9871 72.3479 23.9366 72.189 23.9366 71.974V67.6572C23.9366 67.266 24.1387 67.1187 24.5427 67.2152L24.9671 67.3169C25.755 67.5057 26.4723 67.8738 27.1189 68.4202C27.7655 68.9472 28.3211 69.6185 28.7858 70.4344C29.2506 71.2315 29.6042 72.1481 29.8467 73.1849C30.1093 74.2268 30.2407 75.3448 30.2407 76.5389C30.2407 77.6742 30.0992 78.7072 29.8163 79.638C29.5537 80.5735 29.1293 81.3428 28.5434 81.9464C27.9574 82.5495 27.1997 82.9553 26.2702 83.163C25.3206 83.3659 24.1791 83.3077 22.8456 82.9878L20.209 82.3554C18.8756 82.0361 17.7442 81.5589 16.8149 80.9249C15.8654 80.2668 15.0977 79.4954 14.5118 78.6113C13.926 77.7072 13.5018 76.7151 13.2391 75.6343C12.9563 74.5483 12.8149 73.3988 12.8149 72.1853C12.8149 70.9913 12.9563 69.9389 13.2391 69.0275C13.522 68.0972 13.9361 67.3452 14.4815 66.771C15.0068 66.1727 15.6532 65.7699 16.4209 65.5623C17.1886 65.3546 18.0472 65.3646 18.9968 65.5922L22.1485 66.3478C22.5728 66.4496 22.785 66.706 22.785 67.1171V77.306ZM17.118 73.2462C17.118 74.0291 17.3402 74.7281 17.7846 75.3438C18.2291 75.94 18.8352 76.3396 19.6029 76.5431V71.2577C18.8352 71.0936 18.2291 71.1832 17.7846 71.5267C17.3402 71.8702 17.118 72.4434 17.118 73.2462ZM13.2694 60.5496L9.75449 59.7069C9.37064 59.6151 9.17875 59.3634 9.17875 58.9523V54.2842C9.17875 53.8924 9.37064 53.743 9.75449 53.8348L13.2694 54.6769V51.4766C13.2694 51.0654 13.4715 50.9086 13.8755 51.0051L17.9058 51.9711C18.3301 52.0728 18.5422 52.3292 18.5422 52.7398V55.9407L23.3911 57.1022C23.977 57.2428 24.371 57.2297 24.573 57.0629C24.7751 56.8956 24.8761 56.5873 24.8761 56.1368L24.8761 54.1987C24.8761 54.0424 24.9266 53.9176 25.0277 53.8243C25.1287 53.7309 25.2903 53.711 25.5126 53.764L29.6345 54.7519C30.0386 54.8484 30.2407 55.0928 30.2407 55.484L30.2407 57.4221C30.2407 58.7536 30.1093 59.848 29.8467 60.7048C29.584 61.5423 29.1697 62.1773 28.604 62.6094C28.018 63.0368 27.2603 63.2665 26.3309 63.2979C25.4015 63.3299 24.27 63.1857 22.9365 62.8664L18.5422 61.8129V63.3986C18.5422 63.8097 18.3301 63.9644 17.9058 63.8627L13.8755 62.8968C13.4715 62.7998 13.2694 62.546 13.2694 62.1348V60.5496ZM29.1495 47.089C29.5739 47.1902 29.786 47.4372 29.786 47.8284V52.4388C29.786 52.8306 29.5739 52.9753 29.1495 52.8736L5.96696 47.3197C5.58317 47.2274 5.39127 46.9857 5.39127 46.5945V42.0144C5.39127 41.6033 5.58317 41.4434 5.96696 41.5357L14.2998 43.5315C13.8957 43.0239 13.6028 42.4444 13.421 41.7942C13.2189 41.1193 13.118 40.4884 13.118 39.9011C13.118 38.8639 13.2897 37.9457 13.6331 37.147C13.9765 36.3489 14.4916 35.7086 15.1785 35.2272C15.8452 34.7406 16.6836 34.4328 17.6937 34.3027C18.7039 34.1727 19.8655 34.265 21.1788 34.5791L29.1495 36.4879C29.5739 36.5896 29.786 36.8361 29.786 37.2278V41.8089C29.786 42.2001 29.5739 42.3453 29.1495 42.2436L21.3909 40.3851C20.2393 40.1093 19.4008 40.1434 18.8756 40.4874C18.3503 40.812 18.0877 41.4439 18.0877 42.3836C18.0877 42.6967 18.1584 43.0658 18.2998 43.4917C18.421 43.8923 18.623 44.2735 18.9059 44.6348L29.1495 47.089ZM22.785 26.9476L23.2396 27.0567C24.0073 27.2402 24.6236 27.1726 25.0883 26.8532C25.553 26.5338 25.7854 25.904 25.7854 24.9643C25.7854 24.2795 25.6944 23.7194 25.5126 23.2842C25.3307 22.8489 25.0074 22.5469 24.5427 22.3764C24.3407 22.2894 24.1891 22.194 24.0882 22.0917C23.9871 21.9895 23.9366 21.83 23.9366 21.615V17.2988C23.9366 16.907 24.1387 16.7597 24.5427 16.8562L24.9671 16.9579C25.755 17.1467 26.4723 17.5138 27.1189 18.0602C27.7655 18.5867 28.3211 19.2584 28.7858 20.0744C29.2506 20.8704 29.6042 21.787 29.8467 22.8243C30.1093 23.8657 30.2407 24.9837 30.2407 26.1778C30.2407 27.3136 30.0992 28.3467 29.8163 29.2769C29.5537 30.2124 29.1293 30.9823 28.5434 31.5858C27.9574 32.1894 27.1997 32.5953 26.2702 32.8035C25.3206 33.0069 24.1791 32.9487 22.8456 32.6294L20.209 31.998C18.8756 31.6787 17.7442 31.2025 16.8149 30.5685C15.8654 29.9109 15.0977 29.1395 14.5118 28.2554C13.926 27.3519 13.5018 26.3597 13.2391 25.279C12.9563 24.1935 12.8149 23.0435 12.8149 21.83C12.8149 20.636 12.9563 19.5835 13.2391 18.6727C13.522 17.7419 13.9361 16.9894 14.4815 16.4157C15.0068 15.8168 15.6532 15.4136 16.4209 15.2059C17.1886 14.9983 18.0472 15.0082 18.9968 15.2353L22.1485 15.9899C22.5728 16.0911 22.785 16.3475 22.785 16.7587V26.9476ZM17.118 22.8898C17.118 23.6728 17.3402 24.3718 17.7846 24.9869C18.2291 25.5831 18.8352 25.9827 19.6029 26.1856V20.9003C18.8352 20.7361 18.2291 20.8264 17.7846 21.1698C17.3402 21.5138 17.118 22.087 17.118 22.8898ZM29.1495 9.73703C29.5739 9.83823 29.786 10.0847 29.786 10.4764V15.175C29.786 15.5662 29.5739 15.7114 29.1495 15.6097L13.8452 11.9468C13.4614 11.8551 13.2694 11.6133 13.2694 11.2221V6.55345C13.2694 6.14232 13.4614 5.98289 13.8452 6.07466L14.6634 6.27026C13.8755 5.22043 13.4008 4.24559 13.2391 3.34573C13.0574 2.42123 12.9664 1.50879 12.9664 0.608398C12.9664 0.197281 13.1583 0.0378723 13.5422 0.129639L18.0877 1.21721C18.5119 1.31895 18.7241 1.56541 18.7241 1.9566C18.7241 2.50513 18.7443 3.01851 18.7847 3.49832C18.825 3.95822 18.9059 4.40814 19.0271 4.84811C19.1483 5.28809 19.32 5.74011 19.5423 6.20473C19.7443 6.64468 20.0272 7.12344 20.3908 7.64102L29.1495 9.73703ZM29.2027 127.629C29.6103 127.727 29.8141 127.994 29.8141 128.43V133.699C29.8141 134.115 29.6103 134.273 29.2027 134.176L12.2789 130.112C11.8714 130.014 11.6677 129.757 11.6677 129.342L11.6677 124.073C11.6677 123.637 11.8714 123.468 12.2789 123.566L29.2027 127.629ZM10.7025 134.596C10.7025 134.991 10.4881 135.137 10.0592 135.034L5.23385 133.875C4.78349 133.767 4.55831 133.516 4.55831 133.121L4.55831 116.849C4.55831 116.455 4.78349 116.311 5.23385 116.419L10.0592 117.578C10.4881 117.681 10.7025 117.93 10.7025 118.325L10.7025 134.596ZM29.1495 180.683C29.5739 180.785 29.786 181.032 29.786 181.423V186.122C29.786 186.513 29.5739 186.658 29.1495 186.556L13.8452 182.876C13.4614 182.783 13.2694 182.541 13.2694 182.15V177.481C13.2694 177.07 13.4614 176.911 13.8452 177.003L14.6634 177.2C13.8755 176.149 13.4008 175.174 13.2391 174.274C13.0574 173.349 12.9664 172.437 12.9664 171.536C12.9664 171.125 13.1583 170.966 13.5422 171.058L18.0877 172.151C18.5119 172.253 18.7241 172.5 18.7241 172.891C18.7241 173.439 18.7443 173.953 18.7847 174.432C18.8251 174.892 18.9059 175.342 19.0271 175.783C19.1483 176.223 19.32 176.675 19.5423 177.14C19.7443 177.58 20.0272 178.059 20.3908 178.577L29.1495 180.683ZM29.1495 167.469C29.5739 167.571 29.786 167.818 29.786 168.209L29.786 172.908C29.786 173.299 29.5739 173.444 29.1495 173.342L13.8452 169.663C13.4614 169.57 13.2694 169.329 13.2694 168.937V164.269C13.2694 163.858 13.4614 163.698 13.8452 163.79L29.1495 167.469ZM34.9084 160.425C35.3328 160.527 35.5449 160.774 35.5449 161.165V165.776C35.5449 166.167 35.3328 166.312 34.9084 166.21L13.8452 161.148C13.4614 161.056 13.2694 160.814 13.2694 160.422L13.2694 155.842C13.2694 155.431 13.4614 155.271 13.8452 155.363L14.2998 155.473C13.8957 154.965 13.6028 154.385 13.421 153.735C13.2189 153.06 13.118 152.429 13.118 151.842C13.118 150.804 13.2897 149.886 13.6331 149.088C13.9765 148.289 14.4916 147.65 15.1785 147.169C15.8452 146.683 16.6836 146.376 17.6937 146.246C18.7039 146.117 19.8655 146.21 21.1788 146.526L21.7849 146.671C23.1385 146.997 24.3205 147.486 25.3307 148.14C26.3208 148.789 27.1492 149.575 27.8159 150.499C28.4827 151.403 28.9778 152.432 29.3011 153.586C29.6243 154.741 29.786 155.984 29.786 157.315V159.194L34.9084 160.425ZM18.0877 154.328C18.0877 154.641 18.1584 155.01 18.2998 155.436C18.421 155.837 18.623 156.218 18.9059 156.579L24.7852 157.992V156.113C24.7852 155.174 24.5226 154.386 23.9972 153.751C23.4517 153.091 22.5829 152.618 21.3909 152.332C20.2393 152.055 19.4008 152.089 18.8756 152.432C18.3503 152.756 18.0877 153.388 18.0877 154.328ZM29.2027 193.676C29.6103 193.774 29.8141 194.041 29.8141 194.477V199.746C29.8141 200.162 29.6103 200.321 29.2027 200.223L12.2789 196.151C11.8714 196.053 11.6677 195.797 11.6677 195.381V190.113C11.6677 189.677 11.8714 189.507 12.2789 189.605L29.2027 193.676ZM10.7025 200.635C10.7025 201.03 10.4881 201.175 10.0592 201.073L5.23385 199.912C4.78349 199.803 4.55831 199.551 4.55831 199.156L4.55831 182.886C4.55831 182.491 4.78349 182.348 5.23385 182.456L10.0592 183.616C10.4881 183.719 10.7025 183.969 10.7025 184.363L10.7025 200.635ZM9.15284 190.084L9.15284 154.523H10.7025L10.7025 190.084H9.15284ZM6.87607 190.084L6.87607 154.523H8.42577L8.42577 190.084H6.87607ZM4.59928 190.084L4.59928 154.523H6.14898L6.14898 190.084H4.59928ZM0.569122 145.387C0.691141 146.646 1.01733 147.293 1.63355 147.496C2.05293 147.634 2.7683 147.482 3.27233 147.138C4.1665 146.535 4.41151 146.427 4.71106 146.526C5.03629 146.633 5.12517 146.908 5.02654 147.546C4.97853 147.833 4.90185 147.978 4.66278 148.211C4.22731 148.634 3.36309 150.032 3.32095 150.387C3.27026 150.738 3.48206 151.186 4.09368 152.002C4.79104 152.932 4.80243 152.926 6.80238 152.054C7.09868 151.935 7.4549 151.835 7.59746 151.834C7.74574 151.845 8.35339 152.046 8.94404 152.297C10.1481 152.789 10.2593 152.797 10.8715 152.328C11.2502 152.046 11.2897 151.814 11.1763 150.585L11.0833 149.638L10.3407 148.93C9.90662 148.522 9.57233 148.128 9.53501 147.984C9.44602 147.652 9.42159 146.756 9.49538 146.534C9.5918 146.245 10.0337 146.258 10.7385 146.566C11.5746 146.936 12.8156 147.345 13.1834 147.382C13.577 147.426 13.8587 147.122 14.0997 146.398C14.5336 145.095 13.873 143.97 11.723 142.297C11.2605 141.946 10.5753 141.408 10.2041 141.125C9.43322 140.531 9.43894 140.542 9.3936 139.11C9.37568 138.678 9.30054 138.105 9.21738 137.842C8.90754 136.776 7.81405 135.952 6.88194 136.07C5.62774 136.242 4.65539 137.765 4.74672 139.402C4.80272 140.403 4.73739 140.571 4.00561 141.085C3.67243 141.316 3.22549 141.688 3.01203 141.901C2.79858 142.115 2.40571 142.439 2.1494 142.609C1.4745 143.067 0.908294 143.712 0.68973 144.255C0.539274 144.621 0.519685 144.851 0.569122 145.387ZM2.49132 144.093C3.3311 143.368 4.58963 142.44 5.39848 141.951L5.94248 141.629L5.94779 139.987C5.95448 139.082 5.98741 138.242 6.03278 138.106C6.13487 137.799 6.57043 137.432 6.88683 137.395C7.25172 137.354 7.73435 137.788 7.9235 138.332C8.05244 138.686 8.18734 140.763 8.10227 141.018C8.0569 141.155 8.30551 141.463 8.67378 141.727C9.44456 142.264 12.1769 144.356 12.3312 144.52C12.4168 144.605 12.5201 144.923 12.5634 145.221C12.6356 145.745 12.6299 145.763 12.439 145.822C12.1825 145.908 12.1483 145.897 10.0881 144.981C9.09512 144.54 8.30479 144.233 8.24782 144.261C8.19088 144.289 8.15532 145.138 8.17444 146.25C8.18783 147.322 8.19527 148.327 8.19558 148.497C8.20153 148.764 8.26745 148.851 8.88705 149.33C9.26394 149.624 9.62669 149.989 9.69253 150.134C9.82993 150.435 9.86271 151.22 9.72873 151.252C9.67746 151.263 9.18954 151.074 8.63314 150.834C8.07673 150.594 7.5261 150.393 7.40632 150.382C7.28656 150.371 6.89332 150.497 6.53721 150.653C5.69108 151.026 5.13828 151.203 4.97567 151.15C4.82161 151.099 4.66653 150.481 4.74877 150.234C4.81685 150.029 5.17826 149.657 5.76758 149.171C6.23732 148.787 6.3111 148.594 6.24986 147.836C6.22367 147.516 6.18537 146.861 6.16172 146.39C6.13231 145.907 6.08841 145.269 6.05935 144.957L5.99843 144.398L5.7277 144.47C5.58236 144.507 4.67932 144.937 3.73931 145.421C2.79074 145.902 1.97029 146.284 1.91037 146.264C1.79912 146.227 1.62889 145.113 1.69974 144.871C1.71381 144.8 2.0757 144.456 2.49132 144.093Z" fill="white"/>
</svg>
