<svg width="1440" height="1024" viewBox="0 0 1440 1024" fill="none" xmlns="http://www.w3.org/2000/svg">
<path d="M1053.73 33.5471C1025.15 54.1478 1014.18 71.0705 1017.95 88.7695C1020.51 100.815 1034.21 115.928 1049.57 123.248C1076.63 136.34 1082.68 140.726 1084.51 149.33C1086.5 158.671 1081.13 164.67 1064.38 171.246C1056.81 174.108 1052.25 174.291 1043.28 171.798C1026.98 167.242 981.222 166.01 972.096 169.969C962.918 173.681 955.117 185.065 944.075 211.247C931.511 241.083 931.808 241.278 980.87 277.25C987.911 282.712 995.318 289.896 997.327 293.328C999.143 297.056 1002.86 314.509 1005.1 332.269C1010.19 368.177 1011.55 370.974 1031.44 379.147C1043.53 384.325 1049.68 382.013 1077.64 362.058L1099.13 346.533L1105.73 318.711C1109.45 302.532 1114.23 288.954 1117.18 286.027C1123.91 279.23 1145.14 266.071 1151.5 264.744C1159.82 263.008 1165.71 273.846 1168.2 295.149C1171.03 320.487 1178.62 356.131 1182.91 365.504C1187.37 375.614 1198.64 378.14 1219.44 373.798C1256.88 365.983 1274.67 334.285 1284.73 259.018C1286.67 242.95 1289.99 218.895 1291.59 205.982C1295.06 179.07 1294.87 179.367 1328.7 158.185C1338.82 151.707 1351.55 141.862 1356.73 136.161C1378.03 113.744 1382.48 75.8429 1366.55 55.0348C1344.79 27.2286 1294.5 25.1438 1256.41 50.2968C1233.1 65.6879 1228.15 66.4623 1205.49 56.0463C1195.27 51.248 1180.03 45.6996 1171.9 43.5446C1163.77 41.3897 1150.46 36.4671 1142.75 32.6838C1122.25 22.8415 1098.78 18.2414 1082.67 20.5781C1071.74 22.088 1065.94 24.8382 1053.73 33.5471ZM1111.87 61.7204C1141.11 71.7926 1181.09 89.121 1204.23 101.75L1219.6 110.351L1259.2 87.4454C1281.07 74.9161 1301.74 63.9336 1305.65 63.1161C1314.46 61.2771 1329.4 66.6309 1334.75 73.7306C1340.84 81.9576 1337.2 99.6629 1326.76 111.855C1320.04 119.932 1271.98 152.299 1264.64 153.832C1260.72 154.649 1256.78 164.97 1255.62 177.536C1253.51 203.65 1241.57 298.825 1239.78 304.846C1238.94 308.102 1232.75 315.043 1226.19 320.262C1214.58 329.361 1214.09 329.463 1209.97 325.702C1204.31 320.722 1204.1 319.738 1197.19 257.253C1193.85 227.142 1190.15 203.78 1188.67 202.806C1187.18 201.833 1166.27 212.872 1139.79 228.927C1114.17 244.287 1090.12 258.549 1086.03 260.943C1079.69 264.826 1078.51 267.646 1075.7 289.285C1073.91 302.495 1070.21 316.36 1067.66 319.974C1062.36 327.498 1043.92 339.307 1041.28 336.52C1040.28 335.444 1037.98 321.033 1035.95 304.257C1033.91 287.481 1031 271.401 1029.58 268.358C1028.17 265.315 1019.63 257.599 1010.85 251.215C989.992 236.057 977.972 225.216 976.978 220.545C976.037 216.12 988.732 203.714 995.829 202.233C1001.7 201.008 1015.74 204.497 1035.71 211.881C1051.54 217.819 1057.22 216.89 1074.59 204.794C1081.93 199.668 1097.16 189.556 1108.16 182.383C1119.35 174.912 1134.08 164.905 1141.18 159.829L1153.77 150.526L1148.25 145.002C1145.32 142.02 1122.29 126.288 1097.44 110.422C1072.54 94.3093 1051.84 79.8891 1051.47 78.1682C1050.79 74.9725 1075.22 55.2405 1082.02 53.5646C1083.92 52.909 1097.28 56.8072 1111.87 61.7204Z" fill="#FDFDFA" fill-opacity="0.5"/>
<path d="M876.223 273.523L-79.1484 830.331L-58.4647 865.82L896.907 309.012L876.223 273.523Z" fill="#FDFDFA" fill-opacity="0.5"/>
<path d="M906.609 325.663L-48.7617 882.471L-28.0778 917.961L927.293 361.152L906.609 325.663Z" fill="#FDFDFA" fill-opacity="0.5"/>
<path d="M936.998 377.803L-18.373 934.612L2.31083 970.101L957.682 413.293L936.998 377.803Z" fill="#FDFDFA" fill-opacity="0.5"/>
</svg>
